<?xml version="1.0" encoding="UTF-8"?>
<svg version="1.1" xmlns="http://www.w3.org/2000/svg" width="225" height="225">
<path d="M0 0 C74.25 0 148.5 0 225 0 C225 74.25 225 148.5 225 225 C150.75 225 76.5 225 0 225 C0 150.75 0 76.5 0 0 Z " fill="#000000" transform="translate(0,0)"/>
<path d="M0 0 C12.01893524 9.44727599 19.89405112 20.81208977 21.8828125 36.21484375 C23.34924486 54.59255248 19.98463095 71.13781445 9.125 86.25 C8.68671875 86.88550781 8.2484375 87.52101563 7.796875 88.17578125 C-3.54836712 103.04078222 -24.44779829 109.81182534 -42.1730957 112.80737305 C-45.93711054 113.25742639 -49.55022786 113.3633808 -53.33984375 113.34765625 C-54.35710289 113.34553383 -54.35710289 113.34553383 -55.39491272 113.34336853 C-57.53415578 113.33782745 -59.67328925 113.32528653 -61.8125 113.3125 C-63.27408702 113.30747736 -64.73567569 113.3029158 -66.19726562 113.29882812 C-69.75654526 113.28787745 -73.31576191 113.27065445 -76.875 113.25 C-75.35695023 103.59135899 -72.90153233 94.19819952 -70.4375 84.75 C-70.00037933 83.06188002 -69.56370236 81.3736451 -69.12744141 79.68530273 C-68.43903171 77.02165306 -67.75025227 74.35810326 -67.05999756 71.69493103 C-64.51495451 61.87513095 -62.00321981 52.04685795 -59.49240112 42.21826172 C-58.5249221 38.43154398 -57.5564469 34.64508135 -56.5879364 30.85862732 C-55.6834475 27.32246341 -54.77922522 23.78623134 -53.875 20.25 C-52.225 19.92 -50.575 19.59 -48.875 19.25 C-50.27713339 34.82140897 -52.31307047 50.27139876 -54.5 65.75 C-54.98775794 69.21202106 -55.47433968 72.67419049 -55.95761108 76.13684082 C-56.25537533 78.26962678 -56.5557302 80.40205314 -56.85903931 82.53405762 C-56.99272919 83.49026001 -57.12641907 84.4464624 -57.26416016 85.43164062 C-57.38248199 86.2684436 -57.50080383 87.10524658 -57.62271118 87.96740723 C-57.94823887 90.5298827 -57.94823887 90.5298827 -57.875 94.25 C-57.47152344 93.05375 -57.06804687 91.8575 -56.65234375 90.625 C-52.35081346 78.00970046 -47.79428581 65.49518412 -43.13186646 53.00952148 C-42.46392907 51.22036517 -41.79747086 49.43065591 -41.13253784 47.64038086 C-40.18165572 45.08266575 -39.22456032 42.52736142 -38.265625 39.97265625 C-37.84244743 38.83148094 -37.84244743 38.83148094 -37.41072083 37.66725159 C-35.52846965 32.68296925 -33.32432552 27.98244203 -30.875 23.25 C-29.555 23.91 -28.235 24.57 -26.875 25.25 C-27.49558073 31.95704559 -29.11329481 38.10814323 -31 44.5625 C-33.65373544 53.82256354 -36.17193378 63.10601245 -38.5625 72.4375 C-40.86643422 81.41716497 -43.23057355 90.36407013 -45.875 99.25 C-26.73378782 96.43039629 -8.72453207 91.33992565 3.58984375 75.34765625 C11.84269875 63.08125474 13.70578308 48.42265332 11.6640625 33.9921875 C9.49456504 24.21668718 4.83488391 13.68267303 -3.25 7.40625 C-19.64377488 -2.93744129 -35.16304975 -5.83784924 -54.34375 -3.2890625 C-61.29196532 -1.55200867 -67.60051397 1.86637664 -73.875 5.25 C-72.85019531 4.90066406 -71.82539062 4.55132812 -70.76953125 4.19140625 C-69.40890863 3.73160964 -68.04822849 3.2719832 -66.6875 2.8125 C-66.01396484 2.58240234 -65.34042969 2.35230469 -64.64648438 2.11523438 C-51.19111381 -2.41364645 -35.90657881 -2.80374356 -22.875 3.25 C-21.93269531 3.67410156 -20.99039063 4.09820312 -20.01953125 4.53515625 C-7.80685223 10.582538 -0.99804333 19.32701907 3.4375 32 C6.15693903 45.14835568 3.54932936 58.87923046 -2.79296875 70.62890625 C-4.52242835 73.21997388 -6.55012997 75.18344886 -8.875 77.25 C-7.8656804 74.65123786 -6.81391718 72.12542806 -5.5859375 69.62109375 C-0.24199676 57.88629991 0.3731904 44.27850967 -3.9375 32.0625 C-8.69119617 21.6920064 -15.71586024 13.76709353 -26.33984375 9.1875 C-41.57799305 3.91373119 -56.49429597 5.60131019 -70.9375 12.375 C-87.34365085 20.80572058 -96.27177939 33.68584878 -103.46484375 50.1328125 C-104.875 53.25 -104.875 53.25 -106.875 56.25 C-107.32233138 39.40051799 -100.86016407 22.18487336 -89.5 9.6875 C-81.55568129 1.39860843 -72.31508747 -4.11931604 -61.875 -8.75 C-61.1221875 -9.09289063 -60.369375 -9.43578125 -59.59375 -9.7890625 C-40.92123475 -16.82412987 -15.94103218 -11.02922955 0 0 Z " fill="#F3ECEA" transform="translate(154.875,61.75)"/>
<path d="M0 0 C10.04848557 10.27686024 14.74443314 22.97102469 15.0625 37.125 C14.80408919 53.27567583 9.27102932 65.58001166 -2.25 76.8125 C-3.56170081 77.84071144 -4.88795906 78.85196773 -6.25 79.8125 C-6.58 79.4825 -6.91 79.1525 -7.25 78.8125 C-9.09891946 78.57886119 -10.95488031 78.39946365 -12.8125 78.25 C-14.33037109 78.12431641 -14.33037109 78.12431641 -15.87890625 77.99609375 C-16.66136719 77.93550781 -17.44382813 77.87492187 -18.25 77.8125 C-18.25 77.4825 -18.25 77.1525 -18.25 76.8125 C-14.62 76.8125 -10.99 76.8125 -7.25 76.8125 C-7.37375 75.8225 -7.4975 74.8325 -7.625 73.8125 C-7.63184812 70.36789479 -6.76397285 68.85685916 -4.5625 66.25 C3.91997237 55.99867084 5.69285025 41.64057528 4.75 28.8125 C3.16544065 20.64522837 0.50263996 13.87355655 -5.25 7.8125 C-6.09498047 6.90757813 -6.09498047 6.90757813 -6.95703125 5.984375 C-16.39127318 -3.1519435 -29.49483849 -7.58729196 -42.4375 -7.5 C-43.27394043 -7.49653564 -44.11038086 -7.49307129 -44.97216797 -7.48950195 C-51.73309838 -7.37149536 -57.82167402 -6.33027533 -64.25 -4.1875 C-65.14976563 -3.90132812 -66.04953125 -3.61515625 -66.9765625 -3.3203125 C-69.07705662 -2.63748933 -71.16530703 -1.91714254 -73.25 -1.1875 C-70.42795674 -4.27924903 -67.87807481 -6.10567721 -64.0625 -7.8125 C-63.18207031 -8.21726563 -62.30164063 -8.62203125 -61.39453125 -9.0390625 C-40.18549978 -16.78496965 -18.32434234 -12.33369196 0 0 Z " fill="#050505" transform="translate(153.25,69.1875)"/>
<path d="M0 0 C1.41345703 0.63615234 1.41345703 0.63615234 2.85546875 1.28515625 C15.06814777 7.332538 21.87695667 16.07701907 26.3125 28.75 C29.03193903 41.89835568 26.42432936 55.62923046 20.08203125 67.37890625 C18.35257165 69.96997388 16.32487003 71.93344886 14 74 C15.0093196 71.40123786 16.06108282 68.87542806 17.2890625 66.37109375 C22.63300324 54.63629991 23.2481904 41.02850967 18.9375 28.8125 C14.18380383 18.4420064 7.15913976 10.51709353 -3.46484375 5.9375 C-19.03298948 0.54952277 -34.09348219 2.72078776 -48.94140625 9.23046875 C-51 10 -51 10 -54 10 C-54 7.69 -54 5.38 -54 3 C-51.10538781 2.0170943 -48.20941921 1.03856299 -45.3125 0.0625 C-44.49587891 -0.21529297 -43.67925781 -0.49308594 -42.83789062 -0.77929688 C-28.93528022 -5.45102426 -13.55347869 -6.29618909 0 0 Z " fill="#F0E9E7" transform="translate(132,65)"/>
<path d="M0 0 C-1.4087019 16.08885851 -3.62187779 32.02815738 -6 48 C-6.33 47.34 -6.66 46.68 -7 46 C-9.60181373 44.47479885 -12.08255768 43.69113413 -15 43 C-13.48421818 34.80405798 -11.54613625 26.71567816 -9.54101562 18.62866211 C-8.99380491 16.41240931 -8.45791854 14.19358597 -7.921875 11.97460938 C-7.57361071 10.56493252 -7.22467756 9.1554207 -6.875 7.74609375 C-6.40707031 5.83848267 -6.40707031 5.83848267 -5.9296875 3.89233398 C-5.62289062 2.93786377 -5.31609375 1.98339355 -5 1 C-3 0 -3 0 0 0 Z " fill="#EDE6E4" transform="translate(106,81)"/>
<path d="M0 0 C2.33203125 0.21484375 2.33203125 0.21484375 5 1 C11.94285976 10.20332572 12.95167976 21.90480673 12 33 C9.90840469 43.30703669 6.98937543 52.89833295 -1 60 C0.0093196 57.40123786 1.06108282 54.87542806 2.2890625 52.37109375 C7.69930435 40.49070887 8.27094102 26.83609131 3.6875 14.5625 C2.04824871 10.86556991 0.12726011 7.437303 -2 4 C-1.34 4 -0.68 4 0 4 C0 2.68 0 1.36 0 0 Z " fill="#EFE8E6" transform="translate(147,79)"/>
<path d="M0 0 C0 0.66 0 1.32 0 2 C3.3 2 6.6 2 10 2 C10 3.98 10 5.96 10 8 C8.8759375 7.83628906 7.751875 7.67257813 6.59375 7.50390625 C1.88279524 6.9150369 -2.75873841 6.88730749 -7.5 6.9375 C-8.73363281 6.94426758 -8.73363281 6.94426758 -9.9921875 6.95117188 C-11.99482396 6.96281511 -13.99742227 6.98074444 -16 7 C-16.33 6.01 -16.66 5.02 -17 4 C-17.66 4 -18.32 4 -19 4 C-19.33 4.99 -19.66 5.98 -20 7 C-20 5.35 -20 3.7 -20 2 C-19.03578125 2.02320312 -18.0715625 2.04640625 -17.078125 2.0703125 C-15.81484375 2.08835937 -14.5515625 2.10640625 -13.25 2.125 C-11.37054688 2.15980469 -11.37054688 2.15980469 -9.453125 2.1953125 C-5.87718636 1.99305353 -3.34897249 0 0 0 Z " fill="#121212" transform="translate(77,108)"/>
<path d="M0 0 C0.66 0 1.32 0 2 0 C2.69538791 12.71014576 1.30773182 27.47780272 -7.36328125 37.58984375 C-8.52847927 38.77473526 -9.75793831 39.89594516 -11 41 C-9.97032213 38.38030792 -8.90726194 35.79516733 -7.74609375 33.23046875 C-3.94132894 24.38297088 -3.13396032 16.48682596 -3 7 C-2.34 7 -1.68 7 -1 7 C-0.67 4.69 -0.34 2.38 0 0 Z " fill="#D7D2D1" transform="translate(157,98)"/>
<path d="M0 0 C0.77601562 -0.00257812 1.55203125 -0.00515625 2.3515625 -0.0078125 C4.375 0.125 4.375 0.125 6.375 1.125 C6.045 2.115 5.715 3.105 5.375 4.125 C3.66957031 4.25455078 3.66957031 4.25455078 1.9296875 4.38671875 C-7.34338852 5.19609702 -15.37552501 6.65559766 -24 10.19921875 C-24.86625 10.50472656 -25.7325 10.81023437 -26.625 11.125 C-27.285 10.795 -27.945 10.465 -28.625 10.125 C-22.1638379 5.8771296 -16.1404664 2.957719 -8.625 1.125 C-7.965 0.93808594 -7.305 0.75117187 -6.625 0.55859375 C-4.36897672 0.06949495 -2.30694005 -0.00771552 0 0 Z " fill="#0E0E0E" transform="translate(108.625,56.875)"/>
<path d="M0 0 C0.33 0.99 0.66 1.98 1 3 C3.50447516 4.21869929 3.50447516 4.21869929 6 5 C3.69356492 13.13815304 0.89571216 21.05682118 -2 29 C-2.33 29 -2.66 29 -3 29 C-2.28948448 19.29585386 -1.17837674 9.65582492 0 0 Z " fill="#111010" transform="translate(99,129)"/>
<path d="M0 0 C-0.66 0.66 -1.32 1.32 -2 2 C-1.34 4.31 -0.68 6.62 0 9 C-0.66 9 -1.32 9 -2 9 C-2 12.3 -2 15.6 -2 19 C-3.65 19 -5.3 19 -7 19 C-7.33 17.68 -7.66 16.36 -8 15 C-7.34 14.67 -6.68 14.34 -6 14 C-6 9.38 -6 4.76 -6 0 C-3 -1 -3 -1 0 0 Z " fill="#141414" transform="translate(117,68)"/>
<path d="M0 0 C0.99 0 1.98 0 3 0 C3.33 0.33 3.66 0.66 4 1 C5.85772162 0.91015699 7.71247985 0.75388139 9.5625 0.5625 C10.57441406 0.46066406 11.58632813 0.35882813 12.62890625 0.25390625 C13.41136719 0.17011719 14.19382812 0.08632812 15 0 C15 1.98 15 3.96 15 6 C13.02 6 11.04 6 9 6 C8.67 5.01 8.34 4.02 8 3 C7.67 3.66 7.34 4.32 7 5 C4.67843403 5.40729228 2.3431213 5.74438677 0 6 C-0.38218767 4.34385343 -0.71395102 2.67542976 -1 1 C-0.67 0.67 -0.34 0.34 0 0 Z " fill="#161616" transform="translate(32,109)"/>
<path d="M0 0 C-0.12047418 5.02705917 -0.24587237 8.09872551 -3.5625 12.0625 C-4.366875 12.701875 -5.17125 13.34125 -6 14 C-7.20166506 9.07317325 -6.76869813 5.74755815 -5 1 C-3 0 -3 0 0 0 Z " fill="#E6E0DE" transform="translate(106,81)"/>
<path d="M0 0 C0.66 0 1.32 0 2 0 C2 4.62 2 9.24 2 14 C1.01 14 0.02 14 -1 14 C-1.33 14.66 -1.66 15.32 -2 16 C-2 13.03 -2 10.06 -2 7 C-1.67 7 -1.34 7 -1 7 C-0.67 4.69 -0.34 2.38 0 0 Z " fill="#DCD7D5" transform="translate(157,98)"/>
<path d="M0 0 C0.33 0 0.66 0 1 0 C1 3.63 1 7.26 1 11 C2.65 11 4.3 11 6 11 C6 11.33 6 11.66 6 12 C4.35 12 2.7 12 1 12 C1 15.63 1 19.26 1 23 C0.67 23 0.34 23 0 23 C0 19.37 0 15.74 0 12 C-3.63 12 -7.26 12 -11 12 C-11 11.67 -11 11.34 -11 11 C-7.37 11 -3.74 11 0 11 C0 7.37 0 3.74 0 0 Z " fill="#151515" transform="translate(78,135)"/>
<path d="M0 0 C0.66 0.33 1.32 0.66 2 1 C-2.29 5.29 -6.58 9.58 -11 14 C-11.66 13.67 -12.32 13.34 -13 13 C-11.21188257 11.01752198 -9.41974481 9.03896272 -7.625 7.0625 C-7.11710937 6.49853516 -6.60921875 5.93457031 -6.0859375 5.35351562 C-2.2265625 1.11328125 -2.2265625 1.11328125 0 0 Z " fill="#E4DEDD" transform="translate(73,65)"/>
<path d="M0 0 C0.99 0 1.98 0 3 0 C3.33 0.66 3.66 1.32 4 2 C5.32 2 6.64 2 8 2 C7.67 3.32 7.34 4.64 7 6 C4.69 6 2.38 6 0 6 C0 4.02 0 2.04 0 0 Z " fill="#151515" transform="translate(139,109)"/>
<path d="M0 0 C0.33 0.66 0.66 1.32 1 2 C1.33 1.34 1.66 0.68 2 0 C2.66 0 3.32 0 4 0 C4 2.64 4 5.28 4 8 C2.35 8 0.7 8 -1 8 C-1 3 -1 3 0 0 Z " fill="#151515" transform="translate(111,186)"/>
<path d="M0 0 C0.33 1.32 0.66 2.64 1 4 C1.4125 3.525625 1.825 3.05125 2.25 2.5625 C4.182185 0.83733482 5.48192275 0.43415125 8 0 C8 1.65 8 3.3 8 5 C4.18510326 6.46726798 1.70988378 5.43336419 -2 4 C-1.34 3.67 -0.68 3.34 0 3 C0 2.01 0 1.02 0 0 Z " fill="#1B1B1B" transform="translate(160,109)"/>
<path d="M0 0 C0.66 0.99 1.32 1.98 2 3 C0.96208506 8.18957472 -1.54617125 11.18261033 -5 15 C-5 11.37149374 -3.93046332 9.13832722 -2.5 5.8125 C-2.0359375 4.72582031 -1.571875 3.63914062 -1.09375 2.51953125 C-0.7328125 1.68808594 -0.371875 0.85664062 0 0 Z " fill="#C3BFBE" transform="translate(152,124)"/>
<path d="M0 0 C0.66 0.33 1.32 0.66 2 1 C3.70363822 1.22622081 5.41328701 1.40888473 7.125 1.5625 C8.03507812 1.64628906 8.94515625 1.73007813 9.8828125 1.81640625 C10.58148438 1.87699219 11.28015625 1.93757813 12 2 C12 2.33 12 2.66 12 3 C8.37 3 4.74 3 1 3 C1 6.63 1 10.26 1 14 C0.67 14 0.34 14 0 14 C-0.19393875 11.85473901 -0.37998676 9.70876323 -0.5625 7.5625 C-0.71912109 5.77005859 -0.71912109 5.77005859 -0.87890625 3.94140625 C-0.91886719 2.97074219 -0.95882812 2.00007813 -1 1 C-0.67 0.67 -0.34 0.34 0 0 Z " fill="#161616" transform="translate(78,76)"/>
<path d="M0 0 C1.66666667 0 3.33333333 0 5 0 C4.67 2.64 4.34 5.28 4 8 C3.34 7.67 2.68 7.34 2 7 C1.67 7.33 1.34 7.66 1 8 C0.17361624 5.10765685 0 3.11257569 0 0 Z " fill="#161616" transform="translate(111,31)"/>
<path d="M0 0 C2.97 0.495 2.97 0.495 6 1 C6 2.65 6 4.3 6 6 C4.02 6 2.04 6 0 6 C0.33 5.01 0.66 4.02 1 3 C0.67 2.01 0.34 1.02 0 0 Z " fill="#141414" transform="translate(109,174)"/>
<path d="M0 0 C0 1.98 0 3.96 0 6 C-1.98 6 -3.96 6 -6 6 C-5.01 5.67 -4.02 5.34 -3 5 C-3.99 4.34 -4.98 3.68 -6 3 C-4.60722783 0.21445565 -3.01148006 0 0 0 Z " fill="#0F0F0F" transform="translate(47,109)"/>
<path d="M0 0 C0.33 0 0.66 0 1 0 C2 6.625 2 6.625 2 10 C1.34 9.67 0.68 9.34 0 9 C-1.87056791 8.7724985 -3.74685958 8.59037189 -5.625 8.4375 C-6.62789062 8.35371094 -7.63078125 8.26992187 -8.6640625 8.18359375 C-9.82035156 8.09271484 -9.82035156 8.09271484 -11 8 C-11 7.67 -11 7.34 -11 7 C-7.37 7 -3.74 7 0 7 C0 4.69 0 2.38 0 0 Z " fill="#1C1B1B" transform="translate(146,139)"/>
<path d="M0 0 C0.99 0 1.98 0 3 0 C3 1.98 3 3.96 3 6 C1.68 6 0.36 6 -1 6 C-1.042721 4.33388095 -1.04063832 2.66617115 -1 1 C-0.67 0.67 -0.34 0.34 0 0 Z " fill="#141414" transform="translate(191,110)"/>
<path d="M0 0 C0.12375 0.639375 0.2475 1.27875 0.375 1.9375 C0.58125 2.618125 0.7875 3.29875 1 4 C1.66 4.33 2.32 4.66 3 5 C2.01 7.64 1.02 10.28 0 13 C-0.33 13 -0.66 13 -1 13 C-1.07654536 8.48382401 -1.10228696 4.40914783 0 0 Z " fill="#C0BCBB" transform="translate(49,105)"/>
<path d="M0 0 C1.32 0 2.64 0 4 0 C4 1.65 4 3.3 4 5 C2.68 5 1.36 5 0 5 C0 3.35 0 1.7 0 0 Z " fill="#131313" transform="translate(148,110)"/>
<path d="M0 0 C0.33 0.66 0.66 1.32 1 2 C1.99 2 2.98 2 4 2 C3.67 3.32 3.34 4.64 3 6 C1.68 5.67 0.36 5.34 -1 5 C-0.67 3.35 -0.34 1.7 0 0 Z " fill="#1D1D1D" transform="translate(111,149)"/>
<path d="M0 0 C1.65 0 3.3 0 5 0 C4.67 1.32 4.34 2.64 4 4 C2.68 4 1.36 4 0 4 C0 2.68 0 1.36 0 0 Z " fill="#141414" transform="translate(111,45)"/>
</svg>
