<?xml version="1.0" encoding="utf-8"?>
<!-- Generator: Adobe Illustrator 27.5.0, SVG Export Plug-In . SVG Version: 6.00 Build 0)  -->
<svg version="1.1" id="Layer_1" xmlns="http://www.w3.org/2000/svg" xmlns:xlink="http://www.w3.org/1999/xlink" x="0px" y="0px"
	 viewBox="0 0 800 800" style="enable-background:new 0 0 800 800;" xml:space="preserve">
<radialGradient id="SVGID_1_" cx="151.5602" cy="797.894" r="79.9397" gradientTransform="matrix(2.9393 0 0 0.2 -155.8805 460.2215)" gradientUnits="userSpaceOnUse">
	<stop  offset="0" style="stop-color:#121212"/>
	<stop  offset="0.0895" style="stop-color:#2C2C2C"/>
	<stop  offset="0.4908" style="stop-color:#9C9C9C"/>
	<stop  offset="0.7675" style="stop-color:#E3E3E3"/>
	<stop  offset="0.8956" style="stop-color:#FFFFFF"/>
	<stop  offset="1" style="stop-color:#FFFFFF"/>
</radialGradient>
<path style="fill:url(#SVGID_1_);" d="M524.569,619.801c0,8.83-105.199,15.987-234.969,15.987
	c-129.769,0-234.969-7.157-234.969-15.987c0-8.831,105.2-15.988,234.969-15.988C419.37,603.813,524.569,610.97,524.569,619.801z"/>
<path style="fill:#B0B0B0;" d="M503.097,244.688c12.543,8.623,23.599,21.574,23.599,34.638c0,13.054-0.17,47.767-0.17,47.767
	l-234.998-0.559l-234.999,0.559c0,0-0.171-34.713-0.171-47.767c0-13.064,11.056-26.015,23.599-34.638
	c12.545-8.628,211.57-160.766,211.57-160.766S490.551,236.06,503.097,244.688z"/>
<linearGradient id="SVGID_00000065781936946913915320000012137077761843714485_" gradientUnits="userSpaceOnUse" x1="233.5201" y1="519.0162" x2="618.8976" y2="519.0162" gradientTransform="matrix(0 -1 -1 0 810.543 722.5439)">
	<stop  offset="0" style="stop-color:#D0D0D0"/>
	<stop  offset="0.1538" style="stop-color:#FAFAFA"/>
	<stop  offset="0.4206" style="stop-color:#F1F1F1"/>
	<stop  offset="0.8626" style="stop-color:#D7D7D7"/>
	<stop  offset="1" style="stop-color:#CECECE"/>
</linearGradient>
<path style="fill:url(#SVGID_00000065781936946913915320000012137077761843714485_);" d="M503.097,244.688
	c12.543,8.623,23.599,21.574,23.599,34.638c0,13.054-0.17,52.97-0.17,52.97L291.528,487.83L56.529,332.296
	c0,0-0.171-39.917-0.171-52.97c0-13.064,11.056-26.015,23.599-34.638c12.545-8.628,211.57-155.563,211.57-155.563
	S490.551,236.06,503.097,244.688z"/>
<linearGradient id="SVGID_00000069359516854455577780000014045455129645698495_" gradientUnits="userSpaceOnUse" x1="233.5201" y1="519.0162" x2="618.8976" y2="519.0162" gradientTransform="matrix(0 -1 -1 0 810.543 722.5439)">
	<stop  offset="0" style="stop-color:#D0D0D0"/>
	<stop  offset="0.1538" style="stop-color:#FAFAFA"/>
	<stop  offset="0.4206" style="stop-color:#F1F1F1"/>
	<stop  offset="0.8626" style="stop-color:#D7D7D7"/>
	<stop  offset="1" style="stop-color:#CECECE"/>
</linearGradient>
<path style="fill:url(#SVGID_00000069359516854455577780000014045455129645698495_);" d="M503.097,244.688
	c12.543,8.623,23.599,21.574,23.599,34.638c0,13.054-0.17,52.97-0.17,52.97L291.528,487.83L56.529,332.296
	c0,0-0.171-39.917-0.171-52.97c0-13.064,11.056-26.015,23.599-34.638c12.545-8.628,211.57-155.563,211.57-155.563
	S490.551,236.06,503.097,244.688z"/>
<path style="fill:#424242;" d="M291.528,462.875L77.303,321.087c-0.056-12.789-0.132-33.149-0.132-41.762
	c0-3.008,4.624-10.649,14.573-17.479c10.988-7.555,155.726-114.345,199.785-146.859c44.058,32.515,188.795,139.304,199.771,146.844
	c9.958,6.845,14.583,14.487,14.583,17.495c0,8.612-0.077,28.973-0.13,41.762L291.528,462.875L291.528,462.875z"/>
<polygon style="fill:#FFFFFF;" points="517.863,594.313 510.475,594.313 77.313,594.313 69.925,594.313 69.925,586.932 
	69.925,153.767 69.925,146.378 77.313,146.378 510.475,146.378 517.863,146.378 517.863,153.767 517.863,586.932 517.863,594.313 
	"/>
<linearGradient id="SVGID_00000077310747803300192710000007045030612043715202_" gradientUnits="userSpaceOnUse" x1="77.3125" y1="370.3491" x2="510.4795" y2="370.3491">
	<stop  offset="0" style="stop-color:#0056B7"/>
	<stop  offset="0.1715" style="stop-color:#168BD6"/>
	<stop  offset="0.3222" style="stop-color:#27B1EC"/>
	<stop  offset="0.4422" style="stop-color:#31C9FA"/>
	<stop  offset="0.5165" style="stop-color:#35D2FF"/>
	<stop  offset="0.584" style="stop-color:#31C9F9"/>
	<stop  offset="0.6962" style="stop-color:#27AFE9"/>
	<stop  offset="0.8392" style="stop-color:#1686D0"/>
	<stop  offset="1" style="stop-color:#004FAE"/>
</linearGradient>
<rect x="77.313" y="153.767" style="fill:url(#SVGID_00000077310747803300192710000007045030612043715202_);" width="433.167" height="433.165"/>
<g>
	<path style="fill:#FFFFFF;" d="M368.646,415.529c-22.108,9.746-44.724,14.619-67.848,14.619c-19.737,0-37.503-2.612-53.301-7.826
		c-15.797-5.207-29.245-12.736-40.342-22.609c-11.091-9.868-19.608-21.854-25.538-35.96c-5.929-14.1-8.894-30.044-8.894-47.833
		c0-37.011,11.818-67.848,35.451-92.497c23.63-24.648,53.616-36.975,89.956-36.975c33.032,0,59.504,9.441,79.405,28.337
		c19.993,18.973,29.989,42.814,29.989,71.532c0,14.486-1.992,27.423-5.974,38.82c-3.978,11.387-9.507,21.03-16.577,28.896
		c-7.075,7.881-15.396,13.917-24.968,18.114c-9.571,4.191-19.949,6.28-31.128,6.28c-6.1,0-11.354-1.24-15.756-3.739
		c-4.405-2.5-7.793-5.874-10.163-10.107c-9.659,9.237-21.178,13.846-34.56,13.846c-7.202,0-13.833-1.28-19.887-3.872
		c-6.056-2.585-11.285-6.25-15.69-10.99c-4.405-4.741-7.855-10.523-10.355-17.342c-2.499-6.819-3.747-14.461-3.747-22.931
		c0-22.789,6.987-42.946,20.964-60.486c14.309-17.865,30.152-26.802,47.516-26.802c14.4,0,25.962,3.216,34.689,9.653l1.397-6.224
		h33.67l-20.205,88.056c-0.93,4.065-1.669,7.408-2.22,10.025c-0.549,2.637-0.826,4.964-0.826,6.992c0,3.302,1.522,4.954,4.576,4.954
		c3.3,0,7.581-1.433,12.83-4.314c5.254-2.886,9.845-7.052,13.787-12.52c3.939-5.457,7.074-12.133,9.403-20.009
		c2.327-7.881,3.49-16.773,3.49-26.686c0-10.243-1.949-19.73-5.84-28.459c-3.9-8.724-9.385-16.26-16.458-22.611
		c-7.071-6.356-15.503-11.331-25.284-14.933c-9.781-3.597-20.563-5.396-32.336-5.396c-13.975,0-26.66,2.429-38.052,7.302
		c-11.392,4.873-21.577,12.179-30.561,21.919c-18.121,19.822-27.186,43.881-27.186,72.167c0,13.724,2.225,25.919,6.668,36.595
		c4.446,10.67,10.909,19.688,19.379,27.056c8.468,7.378,18.803,12.982,30.997,16.838c12.197,3.852,26.008,5.783,41.421,5.783
		c18.808,0,36.51-3.771,53.11-11.311L368.646,415.529z M314.901,275.901c-5.594-7.286-14.235-10.925-25.919-10.925
		c-4.743,0-9.276,1.768-13.594,5.336c-4.322,3.551-8.176,8.13-11.565,13.718c-3.386,5.59-6.078,11.793-8.066,18.617
		c-1.989,6.809-2.988,13.445-2.988,19.883c0,17.951,6.689,26.93,20.078,26.93c3.557,0,7.048-0.849,10.482-2.54
		c3.425-1.693,6.625-4.061,9.588-7.109c2.967-3.048,5.591-6.712,7.88-11.001c2.287-4.272,4.065-8.993,5.335-14.161L314.901,275.901z
		"/>
</g>
<path style="fill:#707070;" d="M142.963,308.787c-8.655-8.659-21.658-16.29-34.762-16.29s-53.156,0.116-53.156,0.116l0.564,162.208
	l-0.564,162.211c0,0,40.052,0.115,53.156,0.115s26.107-7.632,34.762-16.289c8.656-8.659,156.112-146.037,156.112-146.037
	S151.619,317.444,142.963,308.787z"/>
<path style="fill:#707070;" d="M440.091,308.787c8.656-8.659,21.658-16.29,34.763-16.29c13.105,0,53.156,0.116,53.156,0.116
	l-0.564,162.208l0.564,162.211c0,0-40.052,0.115-53.156,0.115c-13.104,0-26.106-7.632-34.763-16.289
	c-8.654-8.659-156.111-146.037-156.111-146.037S431.436,317.444,440.091,308.787z"/>
<linearGradient id="SVGID_00000026869111540419876630000001032901495614426267_" gradientUnits="userSpaceOnUse" x1="54.3157" y1="460.0257" x2="290.1884" y2="460.0257">
	<stop  offset="0" style="stop-color:#D0D0D0"/>
	<stop  offset="0.1538" style="stop-color:#FAFAFA"/>
	<stop  offset="0.4206" style="stop-color:#F1F1F1"/>
	<stop  offset="0.8626" style="stop-color:#D7D7D7"/>
	<stop  offset="1" style="stop-color:#CECECE"/>
</linearGradient>
<path style="fill:url(#SVGID_00000026869111540419876630000001032901495614426267_);" d="M142.963,313.989
	c-8.655-8.658-21.658-16.289-34.762-16.289s-53.156,0.116-53.156,0.116l0.564,162.209l-0.564,162.209c0,0,40.052,0.117,53.156,0.117
	s26.107-7.632,34.762-16.291c8.656-8.657,156.112-146.035,156.112-146.035S151.619,322.647,142.963,313.989z"/>
<linearGradient id="SVGID_00000018206104623162157500000003653209260597145496_" gradientUnits="userSpaceOnUse" x1="-15.5574" y1="460.0257" x2="220.3152" y2="460.0257" gradientTransform="matrix(-1 0 0 1 513.1816 0)">
	<stop  offset="0" style="stop-color:#D0D0D0"/>
	<stop  offset="0.1538" style="stop-color:#FAFAFA"/>
	<stop  offset="0.4206" style="stop-color:#F1F1F1"/>
	<stop  offset="0.8626" style="stop-color:#D7D7D7"/>
	<stop  offset="1" style="stop-color:#CECECE"/>
</linearGradient>
<path style="fill:url(#SVGID_00000018206104623162157500000003653209260597145496_);" d="M440.091,313.989
	c8.656-8.658,21.658-16.289,34.763-16.289c13.105,0,53.156,0.116,53.156,0.116l-0.564,162.209l0.564,162.209
	c0,0-40.052,0.117-53.156,0.117c-13.104,0-26.106-7.632-34.763-16.291c-8.654-8.657-156.111-146.035-156.111-146.035
	S431.436,322.647,440.091,313.989z"/>
<path style="fill:#707070;" d="M503.097,552.303c12.543,7.023,23.599,17.576,23.599,28.217c0,10.634-0.17,37.944-0.17,37.944
	l-234.998-0.458l-234.999,0.458c0,0-0.171-27.311-0.171-37.944c0-10.641,11.056-21.194,23.599-28.217
	c12.545-7.027,211.57-131.921,211.57-131.921S490.551,545.275,503.097,552.303z"/>
<linearGradient id="SVGID_00000112606897885240748700000012939220376071967878_" gradientUnits="userSpaceOnUse" x1="98.2819" y1="519.0162" x2="289.7422" y2="519.0162" gradientTransform="matrix(0 -1 -1 0 810.543 722.5439)">
	<stop  offset="0" style="stop-color:#D0D0D0"/>
	<stop  offset="0.1538" style="stop-color:#FAFAFA"/>
	<stop  offset="0.4206" style="stop-color:#F1F1F1"/>
	<stop  offset="0.8626" style="stop-color:#D7D7D7"/>
	<stop  offset="1" style="stop-color:#CECECE"/>
</linearGradient>
<path style="fill:url(#SVGID_00000112606897885240748700000012939220376071967878_);" d="M503.097,552.303
	c12.543,7.023,23.599,17.576,23.599,28.217c0,10.634-0.17,43.149-0.17,43.149l-234.998-0.458l-234.999,0.458
	c0,0-0.171-32.515-0.171-43.149c0-10.641,11.056-21.194,23.599-28.217c12.545-7.027,211.57-126.717,211.57-126.717
	S490.551,545.275,503.097,552.303z"/>
<linearGradient id="SVGID_00000021800118491724214890000018010944709163168922_" gradientUnits="userSpaceOnUse" x1="-216.6153" y1="242.2733" x2="-16.2974" y2="655.9174" gradientTransform="matrix(-1 0 0 1 470.0469 0)">
	<stop  offset="0" style="stop-color:#0D70C2"/>
	<stop  offset="0.2308" style="stop-color:#35D2FF"/>
	<stop  offset="0.3482" style="stop-color:#30C5F7"/>
	<stop  offset="0.5644" style="stop-color:#22A3E2"/>
	<stop  offset="0.8535" style="stop-color:#0C6DC1"/>
	<stop  offset="1" style="stop-color:#004FAE"/>
</linearGradient>
<path style="fill:url(#SVGID_00000021800118491724214890000018010944709163168922_);" d="M730.091,180.178
	c0,0,46.827,94.956-2.602,197.715C678.06,480.653,619.78,657.406,506.359,688.776c-183.408,50.73-72.844-150.888-72.844-150.888
	s113.166,85.85,192.513-111.865c79.347-197.717,39.023-195.116,31.219-226.333C649.442,168.471,730.091,180.178,730.091,180.178z"/>
<linearGradient id="SVGID_00000181770611884706268790000002795589392583209109_" gradientUnits="userSpaceOnUse" x1="-225.2883" y1="287.5403" x2="-19.7704" y2="577.6071" gradientTransform="matrix(-1 0 0 1 470.0469 0)">
	<stop  offset="0" style="stop-color:#0056B7"/>
	<stop  offset="0.0188" style="stop-color:#0562BE"/>
	<stop  offset="0.0816" style="stop-color:#1484D2"/>
	<stop  offset="0.1486" style="stop-color:#20A1E2"/>
	<stop  offset="0.2202" style="stop-color:#29B6EF"/>
	<stop  offset="0.2984" style="stop-color:#30C6F8"/>
	<stop  offset="0.3884" style="stop-color:#34CFFD"/>
	<stop  offset="0.5165" style="stop-color:#35D2FF"/>
	<stop  offset="0.6157" style="stop-color:#34CFFD"/>
	<stop  offset="0.699" style="stop-color:#2FC4F7"/>
	<stop  offset="0.7766" style="stop-color:#28B3EC"/>
	<stop  offset="0.8508" style="stop-color:#1E9ADD"/>
	<stop  offset="0.9225" style="stop-color:#127BC9"/>
	<stop  offset="0.9914" style="stop-color:#0254B1"/>
	<stop  offset="1" style="stop-color:#004FAE"/>
</linearGradient>
<path style="fill:url(#SVGID_00000181770611884706268790000002795589392583209109_);" d="M688.466,273.833
	c0,0,23.413,68.94-13.008,136.58c-36.421,67.64-92.354,196.416-179.505,167.798l-57.233-44.225c0,0,59.835,29.918,104.061-26.015
	c44.227-55.933,119.671-150.889,84.549-234.138H688.466z"/>
<g>
	
		<linearGradient id="SVGID_00000093888193089299064130000018120793849806586530_" gradientUnits="userSpaceOnUse" x1="-237.0003" y1="277.9012" x2="-63.9993" y2="596.588" gradientTransform="matrix(-1 0 0 1 470.0469 0)">
		<stop  offset="0" style="stop-color:#0056B7"/>
		<stop  offset="0.3523" style="stop-color:#88BEE7"/>
		<stop  offset="0.5165" style="stop-color:#C2EBFB"/>
		<stop  offset="0.5668" style="stop-color:#B9E3F7"/>
		<stop  offset="0.6505" style="stop-color:#9FCFED"/>
		<stop  offset="0.7574" style="stop-color:#76AEDD"/>
		<stop  offset="0.8817" style="stop-color:#3D80C6"/>
		<stop  offset="1" style="stop-color:#004FAE"/>
	</linearGradient>
	<path style="fill:url(#SVGID_00000093888193089299064130000018120793849806586530_);" d="M495.953,578.211
		c-0.64-1.67,22.57,14.076,59.388-1.153c35.954-15.257,69.24-58.595,95.901-107.978c27.143-48.419,51.455-97.283,47.589-136.194
		c-0.538-37.677-10.573-59.19-10.365-59.053c-0.446-0.06,6.534,22.459,4.096,58.86c0.705,37.61-24.517,81.297-51.914,130.553
		c-26.395,48.845-55.805,91.414-87.999,108.177C519.946,588.45,495.398,576.565,495.953,578.211z"/>
</g>
<path style="fill:#0053BB;" d="M582.668,188.852c0,56.034,38.437,101.459,85.849,101.459c47.413,0,85.851-45.425,85.851-101.459
	c0-56.034-38.438-101.459-85.851-101.459C621.105,87.393,582.668,132.818,582.668,188.852z"/>
<path style="fill:#0053BB;" d="M326.853,631.543c0,56.034,44.262,101.459,98.859,101.459c54.596,0,98.856-45.425,98.856-101.459
	c0-56.034-44.261-101.459-98.856-101.459C371.115,530.084,326.853,575.509,326.853,631.543z"/>
<linearGradient id="SVGID_00000047052042452848774950000017291758609798549650_" gradientUnits="userSpaceOnUse" x1="-154.2019" y1="282.2308" x2="-199.1755" y2="81.1723" gradientTransform="matrix(-1 0 0 1 470.0469 0)">
	<stop  offset="0" style="stop-color:#0056B7"/>
	<stop  offset="0.1715" style="stop-color:#168BD6"/>
	<stop  offset="0.3222" style="stop-color:#27B1EC"/>
	<stop  offset="0.4422" style="stop-color:#31C9FA"/>
	<stop  offset="0.5165" style="stop-color:#35D2FF"/>
	<stop  offset="0.584" style="stop-color:#31C9F9"/>
	<stop  offset="0.6962" style="stop-color:#27AFE9"/>
	<stop  offset="0.8392" style="stop-color:#1686D0"/>
	<stop  offset="1" style="stop-color:#004FAE"/>
</linearGradient>
<path style="fill:url(#SVGID_00000047052042452848774950000017291758609798549650_);" d="M567.992,169.574
	c-8.697,57.213-28.683,96.886,57.168,116.397c41.08,9.339,93.625-35.578,102.328-92.786c8.699-57.213-4.781-99.95-45.527-115.118
	C583.535,41.429,576.697,112.371,567.992,169.574z"/>
<path style="fill:#1177E6;" d="M357.635,588.131c-34.043,46.802-63.763,68.268,3.496,125.087
	c32.178,27.183,93.223,16.034,127.267-30.762c34.038-46.798,36.39-88.432,12.525-123.157
	C439.944,470.578,391.679,541.333,357.635,588.131z"/>
<radialGradient id="SVGID_00000061432391132803281760000006237759924102111640_" cx="-147.3569" cy="175.8513" r="91.6635" gradientTransform="matrix(-1 0 0 1 470.0469 0)" gradientUnits="userSpaceOnUse">
	<stop  offset="0" style="stop-color:#D2F4FE"/>
	<stop  offset="1" style="stop-color:#1A8FD6"/>
</radialGradient>
<path style="fill:url(#SVGID_00000061432391132803281760000006237759924102111640_);" d="M541.977,164.371
	c-8.699,57.213,18.012,108.735,59.673,115.072c41.649,6.336,82.477-34.913,91.18-92.12c8.699-57.214-18.012-108.73-59.668-115.062
	C591.508,65.92,550.681,107.169,541.977,164.371z"/>
<linearGradient id="SVGID_00000052075918589955649900000006859764857542536379_" gradientUnits="userSpaceOnUse" x1="-131.7912" y1="272.7826" x2="-198.1295" y2="124.4969" gradientTransform="matrix(-1 0 0 1 470.0469 0)">
	<stop  offset="0" style="stop-color:#0056B7"/>
	<stop  offset="0.1407" style="stop-color:#448BCF"/>
	<stop  offset="0.2675" style="stop-color:#7AB4E2"/>
	<stop  offset="0.3763" style="stop-color:#A1D2F0"/>
	<stop  offset="0.4629" style="stop-color:#B9E4F8"/>
	<stop  offset="0.5165" style="stop-color:#C2EBFB"/>
	<stop  offset="0.5668" style="stop-color:#B9E3F7"/>
	<stop  offset="0.6505" style="stop-color:#9FCFED"/>
	<stop  offset="0.7574" style="stop-color:#76AEDD"/>
	<stop  offset="0.8817" style="stop-color:#3D80C6"/>
	<stop  offset="1" style="stop-color:#004FAE"/>
</linearGradient>
<path style="fill:url(#SVGID_00000052075918589955649900000006859764857542536379_);" d="M640.181,268
	c21.507-12.87,40.379-44.404,46.674-81.587c5.046-37.372-3.598-73.097-20.304-91.775c-16.041-19.511-34.033-21.473-33.389-22.377
	c-0.136,0.147,0.403,0.209,1.494,0.331c40.782,7.347,66.767,58.214,58.174,114.731c-8.607,56.583-48.642,97.47-89.813,92.232
	c-0.954-0.189-1.448-0.279-1.366-0.112C601.305,278.386,619.063,281.866,640.181,268z"/>
<radialGradient id="SVGID_00000074417394665466772840000003131974223296546974_" cx="-76.6334" cy="198.389" r="162.4041" gradientTransform="matrix(-1 0 0 1 470.0469 0)" gradientUnits="userSpaceOnUse">
	<stop  offset="0" style="stop-color:#D2F4FE"/>
	<stop  offset="0.1158" style="stop-color:#CCF1FD"/>
	<stop  offset="0.2686" style="stop-color:#BCE8F9"/>
	<stop  offset="0.442" style="stop-color:#A0D9F3"/>
	<stop  offset="0.6307" style="stop-color:#7AC4EB"/>
	<stop  offset="0.8294" style="stop-color:#4AA9E0"/>
	<stop  offset="1" style="stop-color:#1A8FD6"/>
</radialGradient>
<path style="fill:url(#SVGID_00000074417394665466772840000003131974223296546974_);" d="M599.739,259.276
	c30.93,0,60.47-34.917,67.254-79.51c3.71-24.43,0.386-48.251-9.381-67.07c-8.905-17.184-22.122-27.916-37.198-30.212
	c-2.037-0.3-4.104-0.462-6.153-0.462c-30.933,0-60.47,34.922-67.264,79.504c-7.266,47.783,14.069,92.339,46.595,97.283
	C595.619,259.113,597.692,259.276,599.739,259.276L599.739,259.276z"/>
<radialGradient id="SVGID_00000168801539336584647560000015026278754982605500_" cx="-106.9827" cy="189.7187" r="109.7015" gradientTransform="matrix(-1 0 0 1 470.0469 0)" gradientUnits="userSpaceOnUse">
	<stop  offset="0" style="stop-color:#D2F4FE"/>
	<stop  offset="1" style="stop-color:#1A8FD6"/>
</radialGradient>
<path style="fill:url(#SVGID_00000168801539336584647560000015026278754982605500_);" d="M657.612,112.696
	c9.767,18.82,13.091,42.64,9.381,67.07c-6.784,44.592-36.324,79.51-67.254,79.51c-0.609,0-1.22-0.113-1.829-0.138
	c48.992-52.93,40.527-131.448,30.787-174.373C640.291,89.15,650.384,98.749,657.612,112.696z"/>
<path style="fill:#A7DCF5;" d="M661.013,178.863c4.344-30.893-2.084-59.937-14.06-76.654
	c-12.094-17.032-27.063-19.065-26.539-19.725c-0.096,0.081,0.178,0.111,0.712,0.162c14.776,2.525,27.723,13.14,36.486,30.05
	c9.767,18.82,13.091,42.64,9.381,67.07c-6.784,44.592-36.324,79.51-67.254,79.51c-1.957,0-3.934-0.168-5.874-0.447
	c-0.208-0.046-0.329-0.066-0.273-0.02c-0.376-0.63,14.648,1.763,31.075-11.087C641.298,235.623,655.987,209.633,661.013,178.863z"/>
<radialGradient id="SVGID_00000129166366294018068250000003452542108965602180_" cx="67.7002" cy="605.9675" r="91.6586" gradientTransform="matrix(-1 0 0 1 470.0469 0)" gradientUnits="userSpaceOnUse">
	<stop  offset="0" style="stop-color:#D2F4FE"/>
	<stop  offset="1" style="stop-color:#1A8FD6"/>
</radialGradient>
<path style="fill:url(#SVGID_00000129166366294018068250000003452542108965602180_);" d="M346.203,554.31
	c-39.181,42.59-45.812,100.24-14.802,128.771c31,28.529,87.908,17.127,127.094-25.462c39.176-42.59,45.807-100.234,14.796-128.76
	C442.286,500.323,385.383,511.726,346.203,554.31z"/>
<linearGradient id="SVGID_00000180342516591196229960000001701086767612401851_" gradientUnits="userSpaceOnUse" x1="-20.7087" y1="556.52" x2="99.6113" y2="699.6031" gradientTransform="matrix(-1 0 0 1 470.0469 0)">
	<stop  offset="0" style="stop-color:#0056B7"/>
	<stop  offset="0.3523" style="stop-color:#88BEE7"/>
	<stop  offset="0.5165" style="stop-color:#C2EBFB"/>
	<stop  offset="0.5668" style="stop-color:#B9E3F7"/>
	<stop  offset="0.6505" style="stop-color:#9FCFED"/>
	<stop  offset="0.7574" style="stop-color:#76AEDD"/>
	<stop  offset="0.8817" style="stop-color:#3D80C6"/>
	<stop  offset="1" style="stop-color:#004FAE"/>
</linearGradient>
<path style="fill:url(#SVGID_00000180342516591196229960000001701086767612401851_);" d="M369.749,695.123
	c25.029,1.342,58.301-14.273,84.291-41.594c25.07-28.176,37.864-62.631,34.44-87.456c-2.398-25.146-16.23-36.823-15.189-37.214
	c-0.199,0.046,0.214,0.396,1.052,1.111c29.72,28.872,22.851,85.576-15.848,127.648c-38.76,42.122-94.814,53.672-126.026,26.315
	c-0.687-0.687-1.042-1.036-1.067-0.853C331.706,682.008,344.49,694.823,369.749,695.123z"/>
<radialGradient id="SVGID_00000115478910760685612550000009227291283508484737_" cx="-138.4208" cy="187.3346" r="72.7057" gradientTransform="matrix(-1 0 0 1 470.0469 0)" gradientUnits="userSpaceOnUse">
	<stop  offset="0" style="stop-color:#D2F4FE"/>
	<stop  offset="1" style="stop-color:#1A8FD6"/>
</radialGradient>
<path style="fill:url(#SVGID_00000115478910760685612550000009227291283508484737_);" d="M604.535,170.23
	c-2.331,16.92,4.361,31.823,14.97,33.291c10.599,1.468,21.093-11.061,23.435-27.991c2.332-16.92-4.365-31.829-14.964-33.292
	C617.366,140.77,606.873,153.305,604.535,170.23z"/>
<path style="fill:#00387F;" d="M617.559,203.089c-9.465-2.906-15.207-17.001-13.023-32.859c2.19-15.863,11.551-27.87,21.448-28.103
	c-4.868,1.493-17.042,10.289-18.448,28.514C603.946,188.557,613.275,200.325,617.559,203.089z"/>
<radialGradient id="SVGID_00000075880045195387625920000007223899424808163978_" cx="-140.3756" cy="186.6819" r="54.6438" gradientTransform="matrix(-1 0 0 1 470.0469 0)" gradientUnits="userSpaceOnUse">
	<stop  offset="0" style="stop-color:#D2F4FE"/>
	<stop  offset="1" style="stop-color:#1A8FD6"/>
</radialGradient>
<path style="fill:url(#SVGID_00000075880045195387625920000007223899424808163978_);" d="M629.571,200.792
	c4.938-18.048,6.706-36.538,6.59-54.052c5.554,5.915,8.424,16.838,6.778,28.79C641.364,186.931,636.085,196.311,629.571,200.792z"/>
<g>
	<path style="fill:#00387F;" d="M625.674,157.775c1.387,0.188,2.266,2.145,1.961,4.355c-0.306,2.211-1.682,3.847-3.069,3.659
		c-1.387-0.194-2.261-2.14-1.956-4.354C622.92,159.219,624.291,157.583,625.674,157.775z"/>
	<path style="fill:#00387F;" d="M624.241,168.141c1.382,0.198,2.261,2.145,1.956,4.36c-0.305,2.215-1.677,3.851-3.065,3.658
		c-1.382-0.193-2.261-2.145-1.956-4.36C621.482,169.595,622.852,167.953,624.241,168.141z"/>
	<path style="fill:#00387F;" d="M622.808,178.517c1.388,0.193,2.261,2.145,1.956,4.354c-0.305,2.216-1.682,3.856-3.063,3.664
		c-1.382-0.194-2.267-2.145-1.956-4.355C620.044,179.965,621.421,178.324,622.808,178.517z"/>
	<path style="fill:#00387F;" d="M630.917,164.503c1.382,0.193,2.261,2.145,1.956,4.354c-0.304,2.211-1.682,3.852-3.063,3.658
		c-1.389-0.188-2.267-2.139-1.963-4.354C628.153,165.951,629.524,164.315,630.917,164.503z"/>
	<path style="fill:#00387F;" d="M629.479,174.879c1.388,0.188,2.261,2.139,1.956,4.349c-0.305,2.215-1.677,3.852-3.058,3.664
		c-1.389-0.193-2.272-2.145-1.968-4.355C626.721,176.322,628.093,174.685,629.479,174.879z"/>
	<path style="fill:#00387F;" d="M617.407,170.804c-1.389-0.193-2.268-2.145-1.961-4.354c0.304-2.21,1.681-3.846,3.067-3.658
		c1.377,0.193,2.256,2.139,1.952,4.354C620.161,169.356,618.789,170.997,617.407,170.804z"/>
	<path style="fill:#00387F;" d="M617.08,173.162c1.384,0.193,2.257,2.144,1.952,4.355c-0.305,2.21-1.682,3.851-3.063,3.664
		c-1.382-0.194-2.267-2.145-1.956-4.36C614.317,174.609,615.69,172.969,617.08,173.162z"/>
</g>
<radialGradient id="SVGID_00000111879232329291652680000012833231530371772065_" cx="107.7456" cy="358.7115" r="162.3974" gradientTransform="matrix(-0.8119 -0.5838 -0.5838 0.8119 630.1677 361.0226)" gradientUnits="userSpaceOnUse">
	<stop  offset="0" style="stop-color:#D2F4FE"/>
	<stop  offset="0.1158" style="stop-color:#CCF1FD"/>
	<stop  offset="0.2686" style="stop-color:#BCE8F9"/>
	<stop  offset="0.442" style="stop-color:#A0D9F3"/>
	<stop  offset="0.6307" style="stop-color:#7AC4EB"/>
	<stop  offset="0.8294" style="stop-color:#4AA9E0"/>
	<stop  offset="1" style="stop-color:#1A8FD6"/>
</radialGradient>
<path style="fill:url(#SVGID_00000111879232329291652680000012833231530371772065_);" d="M340.816,669.768
	c25.111,18.058,69.484,6.946,101.022-25.294c17.271-17.671,28.475-38.94,31.539-59.931c2.805-19.151-1.672-35.573-12.571-46.239
	c-1.473-1.438-3.059-2.773-4.721-3.967c-25.11-18.064-69.479-6.956-101.022,25.272c-33.794,34.553-42.488,83.188-18.973,106.19
	C337.56,667.233,339.149,668.574,340.816,669.768L340.816,669.768z"/>
<radialGradient id="SVGID_00000119825900214097963240000015302059109544999305_" cx="77.397" cy="350.0398" r="109.6995" gradientTransform="matrix(-0.8119 -0.5838 -0.5838 0.8119 630.1677 361.0226)" gradientUnits="userSpaceOnUse">
	<stop  offset="0" style="stop-color:#D2F4FE"/>
	<stop  offset="1" style="stop-color:#1A8FD6"/>
</radialGradient>
<path style="fill:url(#SVGID_00000119825900214097963240000015302059109544999305_);" d="M473.378,584.543
	c-3.064,20.99-14.268,42.26-31.539,59.931c-31.538,32.24-75.912,43.352-101.022,25.294c-0.498-0.361-0.93-0.797-1.408-1.179
	c70.678-14.369,109.646-83.062,126.795-123.598C473.058,555.321,475.648,569.004,473.378,584.543z"/>
<path style="fill:#A7DCF5;" d="M437.505,640.252c21.564-22.539,33.297-49.876,33.338-70.438c0.126-20.89-10.844-31.275-10.036-31.51
	c-0.122,0.011,0.081,0.194,0.488,0.545c10.523,10.68,14.842,26.849,12.083,45.694c-3.064,20.99-14.268,42.26-31.539,59.931
	c-31.538,32.24-75.912,43.352-101.022,25.294c-1.585-1.144-3.094-2.428-4.512-3.789c-0.137-0.158-0.228-0.25-0.214-0.179
	c0.071-0.736,10.869,9.985,31.711,9.136C388.366,674.824,415.462,662.305,437.505,640.252z"/>
<radialGradient id="SVGID_00000042699059418787216120000009898216761722326946_" cx="100.2701" cy="595.7704" r="109.9463" gradientTransform="matrix(-1 0 0 1 470.0469 0)" gradientUnits="userSpaceOnUse">
	<stop  offset="0" style="stop-color:#D2F4FE"/>
	<stop  offset="1" style="stop-color:#1A8FD6"/>
</radialGradient>
<path style="fill:url(#SVGID_00000042699059418787216120000009898216761722326946_);" d="M373.859,582.343
	c-23.612,21.874-31.747,51.497-18.171,66.156c13.582,14.639,43.739,8.779,67.345-13.105c23.612-21.885,31.742-51.492,18.171-66.145
	C427.627,554.6,397.471,560.458,373.859,582.343z"/>
<radialGradient id="SVGID_00000057860589669923056460000003755162057235520389_" cx="95.9364" cy="599.0249" r="85.1356" gradientTransform="matrix(-1 0 0 1 470.0469 0)" gradientUnits="userSpaceOnUse">
	<stop  offset="0" style="stop-color:#D2F4FE"/>
	<stop  offset="1" style="stop-color:#1A8FD6"/>
</radialGradient>
<path style="fill:url(#SVGID_00000057860589669923056460000003755162057235520389_);" d="M447.337,582.352
	c2.52,15.57-6.463,36.509-24.304,53.043c-15.812,14.659-34.546,22.082-49.286,21.016
	C406.927,639.276,430.899,609.924,447.337,582.352z"/>
<g>
	<path style="fill:#00387F;" d="M431.474,578.974c1.687,1.814,0.676,5.483-2.245,8.186c-2.923,2.714-6.657,3.439-8.328,1.616
		c-1.683-1.804-0.681-5.462,2.24-8.175C426.066,577.896,429.792,577.165,431.474,578.974z"/>
	<path style="fill:#00387F;" d="M417.785,591.667c1.686,1.808,0.67,5.466-2.246,8.18c-2.922,2.714-6.651,3.426-8.328,1.62
		c-1.682-1.813-0.681-5.477,2.235-8.175C412.369,590.585,416.108,589.842,417.785,591.667z"/>
	<path style="fill:#00387F;" d="M404.096,604.344c1.677,1.818,0.672,5.487-2.245,8.19c-2.926,2.709-6.656,3.435-8.332,1.616
		c-1.677-1.809-0.676-5.467,2.245-8.171C398.68,603.266,402.414,602.54,404.096,604.344z"/>
	<path style="fill:#00387F;" d="M390.408,617.041c1.668,1.815,0.671,5.478-2.245,8.176c-2.927,2.709-6.662,3.439-8.338,1.62
		c-1.672-1.813-0.67-5.466,2.251-8.175C384.992,615.948,388.726,615.227,390.408,617.041z"/>
	<path style="fill:#00387F;" d="M376.714,629.729c1.672,1.815,0.681,5.473-2.245,8.182c-2.917,2.702-6.651,3.429-8.334,1.621
		c-1.688-1.814-0.671-5.473,2.246-8.176C371.308,628.636,375.033,627.914,376.714,629.729z"/>
	<path style="fill:#00387F;" d="M406.861,586.723c-1.682-1.809-0.692-5.462,2.235-8.176c2.921-2.709,6.646-3.43,8.333-1.625
		c1.682,1.808,0.676,5.481-2.247,8.185C412.252,587.819,408.527,588.536,406.861,586.723z"/>
	<path style="fill:#00387F;" d="M403.024,588.841c1.682,1.81,0.666,5.483-2.256,8.186c-2.917,2.702-6.646,3.435-8.323,1.62
		c-1.677-1.815-0.681-5.482,2.241-8.186C397.613,587.75,401.344,587.028,403.024,588.841z"/>
	<path style="fill:#00387F;" d="M389.337,601.523c1.682,1.815,0.665,5.478-2.263,8.191c-2.911,2.704-6.64,3.435-8.317,1.621
		c-1.682-1.819-0.676-5.482,2.24-8.191C383.924,600.441,387.66,599.716,389.337,601.523z"/>
	<path style="fill:#00387F;" d="M376.353,614.988c1.683,1.81,0.682,5.478-2.246,8.187c-2.921,2.708-6.646,3.424-8.332,1.615
		c-1.677-1.813-0.67-5.477,2.251-8.175C370.947,613.901,374.677,613.174,376.353,614.988z"/>
	<path style="fill:#00387F;" d="M393.117,584.385c-1.682-1.808-0.676-5.473,2.241-8.186c2.921-2.698,6.655-3.429,8.337-1.621
		c1.684,1.819,0.667,5.483-2.25,8.182C398.528,585.467,394.793,586.199,393.117,584.385z"/>
	<path style="fill:#00387F;" d="M388.564,585.722c1.692,1.818,0.681,5.487-2.247,8.195c-2.911,2.697-6.645,3.425-8.328,1.611
		c-1.677-1.81-0.666-5.478,2.246-8.18C383.163,584.635,386.896,583.913,388.564,585.722z"/>
	<path style="fill:#00387F;" d="M376.313,599.959c1.672,1.814,0.67,5.473-2.25,8.18c-2.917,2.704-6.651,3.436-8.328,1.622
		c-1.677-1.813-0.676-5.478,2.246-8.181C370.896,598.877,374.626,598.144,376.313,599.959z"/>
	<path style="fill:#00387F;" d="M433.024,606.243c1.69,1.809,0.674,5.473-2.247,8.186c-2.921,2.704-6.636,3.425-8.323,1.615
		c-1.682-1.814-0.675-5.472,2.251-8.186C427.622,605.156,431.352,604.431,433.024,606.243z"/>
	<path style="fill:#00387F;" d="M412.439,622.093c2.922-2.703,6.646-3.426,8.333-1.616c1.677,1.809,0.676,5.477-2.245,8.185
		c-2.922,2.708-6.656,3.424-8.333,1.621C408.513,628.464,409.523,624.8,412.439,622.093z"/>
	<path style="fill:#00387F;" d="M405.651,631.608c1.681,1.825,0.666,5.488-2.245,8.19c-2.922,2.698-6.652,3.436-8.339,1.632
		c-1.671-1.818-0.67-5.487,2.256-8.19C400.235,630.531,403.965,629.81,405.651,631.608z"/>
	<path style="fill:#00387F;" d="M432.459,593.141c1.672,1.813,0.676,5.478-2.24,8.175c-2.933,2.719-6.667,3.44-8.338,1.626
		c-1.682-1.809-0.676-5.473,2.24-8.18C427.043,592.063,430.777,591.326,432.459,593.141z"/>
	<path style="fill:#00387F;" d="M418.766,605.828c1.678,1.813,0.67,5.473-2.246,8.185c-2.926,2.704-6.651,3.426-8.328,1.616
		c-1.682-1.809-0.675-5.467,2.242-8.171C413.359,604.74,417.089,604.014,418.766,605.828z"/>
	<path style="fill:#00387F;" d="M405.071,618.505c1.684,1.814,0.677,5.483-2.24,8.196c-2.926,2.703-6.651,3.429-8.333,1.621
		c-1.682-1.815-0.676-5.479,2.245-8.187C399.667,617.434,403.401,616.69,405.071,618.505z"/>
	<path style="fill:#00387F;" d="M391.388,631.203c1.672,1.813,0.671,5.467-2.256,8.175c-2.921,2.714-6.65,3.439-8.322,1.62
		c-1.683-1.808-0.682-5.461,2.251-8.175C385.972,630.114,389.702,629.394,391.388,631.203z"/>
</g>
</svg>
